<?xml version="1.0" standalone="no"?>
<!DOCTYPE svg PUBLIC "-//W3C//DTD SVG 20010904//EN"
 "http://www.w3.org/TR/2001/REC-SVG-20010904/DTD/svg10.dtd">
<svg version="1.0" xmlns="http://www.w3.org/2000/svg"
 width="1024.000000pt" height="1536.000000pt" viewBox="0 0 1024.000000 1536.000000"
 preserveAspectRatio="xMidYMid meet">

<g transform="translate(0.000000,1536.000000) scale(0.100000,-0.100000)"
fill="#000000" stroke="none">
<path d="M4720 11459 c-74 -5 -209 -18 -300 -30 -91 -12 -205 -25 -254 -30
-48 -5 -115 -16 -148 -25 -57 -16 -62 -16 -112 2 -114 42 -247 15 -276 -57
-13 -30 -15 -31 -58 -24 -101 15 -196 -36 -208 -112 -6 -40 -6 -40 -59 -46
-134 -14 -234 -102 -235 -207 0 -8 -25 -28 -56 -45 -66 -35 -134 -105 -134
-137 0 -19 -13 -28 -72 -52 -109 -44 -178 -117 -178 -190 0 -20 -14 -31 -87
-69 -187 -96 -223 -147 -192 -265 3 -9 -23 -23 -77 -40 -141 -47 -192 -98
-180 -183 3 -24 8 -74 12 -110 l6 -65 -48 -40 c-27 -22 -79 -61 -116 -87 -73
-52 -88 -71 -88 -114 0 -30 34 -93 50 -93 5 0 10 -4 10 -10 0 -5 -8 -10 -18
-10 -35 0 -141 -42 -167 -66 -24 -22 -26 -31 -23 -77 2 -29 8 -59 12 -68 6
-13 -2 -19 -40 -28 -62 -16 -121 -47 -134 -70 -31 -59 9 -128 98 -170 35 -17
51 -31 55 -47 5 -26 7 -24 -117 -55 -58 -14 -116 -61 -116 -94 0 -13 18 -47
40 -76 l41 -54 -75 -70 c-85 -80 -96 -97 -96 -155 0 -66 26 -107 111 -173 l78
-61 -97 -64 c-119 -78 -142 -100 -177 -164 -21 -39 -28 -64 -28 -112 -1 -82
24 -127 118 -213 41 -38 75 -74 75 -79 0 -5 -31 -24 -68 -41 -82 -38 -174
-108 -213 -162 -39 -53 -54 -127 -44 -216 l9 -70 7 65 c13 102 33 143 102 205
60 54 240 155 253 142 3 -3 -11 -15 -33 -25 -21 -11 -51 -34 -68 -52 -26 -27
-30 -39 -29 -83 1 -87 69 -190 161 -244 23 -13 43 -26 43 -28 0 -2 -17 1 -37
6 -42 9 -130 12 -121 4 3 -3 46 -17 96 -30 113 -30 215 -79 249 -119 24 -29
25 -35 20 -113 -2 -46 -4 -83 -3 -83 1 0 37 15 80 34 43 19 109 42 147 51 l67
17 65 -55 c180 -153 351 -231 517 -239 64 -2 66 -4 135 -63 191 -166 412 -301
542 -329 28 -7 32 -12 47 -71 9 -35 16 -76 16 -90 0 -14 5 -25 11 -25 5 0 7 4
4 10 -3 6 -4 14 0 19 3 6 42 -29 88 -76 142 -147 312 -259 447 -293 41 -10 48
-16 75 -68 38 -75 229 -266 355 -355 235 -166 494 -261 716 -262 l100 0 64 43
c71 47 78 49 126 26 48 -23 189 -176 220 -240 23 -47 24 -56 12 -80 -31 -65
-132 -104 -288 -111 -307 -15 -679 138 -1085 445 -44 33 -81 59 -83 58 -5 -6
32 -83 61 -126 47 -69 179 -192 277 -260 94 -64 235 -138 336 -176 71 -27 248
-64 304 -64 52 0 64 -18 56 -83 -9 -67 -48 -149 -89 -183 -85 -72 -231 -111
-371 -99 -185 16 -351 99 -507 254 -193 194 -334 506 -355 785 -4 53 -10 98
-14 101 -4 2 -25 -5 -48 -16 -24 -12 -71 -23 -114 -26 -137 -10 -237 25 -421
146 -73 48 -137 90 -143 94 -6 3 10 -33 34 -81 63 -121 169 -227 278 -279 71
-34 89 -38 174 -41 52 -2 114 1 138 6 50 12 52 5 19 -53 -27 -47 -99 -99 -168
-119 -312 -93 -664 20 -924 296 -88 94 -166 220 -230 373 -122 291 -134 456
-41 594 l35 51 -27 0 c-81 1 -95 37 -37 93 l36 35 -68 37 c-156 85 -318 214
-365 290 -10 17 -18 25 -18 19 0 -18 51 -165 70 -204 10 -20 36 -90 58 -156
23 -67 63 -172 91 -234 28 -63 51 -115 51 -116 0 -9 -130 40 -160 60 -68 45
-129 132 -150 217 -11 44 -12 44 -58 46 -65 2 -127 27 -179 69 -70 58 -76 76
-84 275 -9 210 -22 253 -102 325 -71 63 -101 77 -54 25 49 -55 62 -87 77 -188
17 -115 8 -411 -14 -481 -19 -60 -72 -126 -93 -118 -22 9 -9 -23 59 -154 44
-84 203 -342 232 -377 1 -1 33 27 72 63 139 131 245 181 319 150 55 -23 62
-45 69 -211 7 -170 20 -234 77 -390 23 -60 56 -161 74 -224 l32 -113 104 -90
c104 -90 231 -188 243 -188 3 0 -10 22 -29 49 -43 60 -79 138 -100 216 -23 89
-19 94 24 29 51 -79 160 -181 247 -233 40 -23 79 -50 87 -59 9 -10 27 -60 40
-112 l24 -95 68 -38 c80 -46 85 -43 85 51 0 34 3 62 8 62 4 0 22 -23 41 -50
l33 -50 39 34 c72 61 264 136 350 136 36 0 61 -31 139 -172 92 -164 126 -222
193 -324 l60 -91 113 -27 c307 -72 600 -106 918 -106 332 0 555 26 821 95 104
27 332 100 342 109 1 1 14 49 28 106 23 87 33 111 66 148 44 50 73 121 90 219
11 60 18 74 57 115 36 38 49 45 63 37 27 -14 72 -11 97 7 80 56 114 282 73
479 -17 82 -18 97 -5 165 25 134 29 342 9 495 -10 75 -16 137 -14 138 2 1 18
9 34 17 35 18 75 90 75 136 0 23 6 34 26 42 40 19 57 74 51 162 -3 42 -9 84
-13 93 -5 15 1 17 50 17 135 0 293 54 423 145 36 25 67 45 68 43 2 -2 -1 -25
-6 -52 -5 -27 -7 -51 -5 -54 3 -2 45 17 95 44 450 237 783 740 885 1336 91
529 -23 1056 -331 1529 -80 122 -81 126 -93 214 -18 143 -70 276 -157 406 -34
51 -55 96 -67 144 -81 324 -318 605 -711 842 -618 372 -1397 537 -2275 482z
m317 -95 l29 -6 -32 -33 c-64 -68 -66 -185 -5 -310 27 -53 127 -172 138 -162
2 2 -24 58 -58 123 -90 176 -92 253 -8 349 l34 38 140 -6 c160 -8 452 -40 570
-63 648 -128 1289 -457 1569 -806 82 -101 159 -253 187 -367 18 -75 26 -91 70
-139 56 -61 129 -204 153 -298 24 -92 25 -89 -43 -86 -70 4 -124 -17 -189 -73
-61 -53 -200 -242 -335 -457 -107 -169 -137 -212 -137 -193 0 3 7 20 17 38 24
48 23 139 -3 174 -36 48 -80 67 -151 66 -55 0 -77 -7 -146 -41 -45 -23 -104
-60 -130 -83 -151 -130 -297 -434 -314 -651 l-6 -77 -51 -6 c-83 -11 -240 26
-324 75 -19 12 -36 19 -38 17 -3 -2 18 -25 45 -50 57 -53 163 -109 253 -133
90 -25 95 -36 13 -29 -227 22 -406 89 -576 217 -27 21 -49 35 -49 32 0 -21 62
-103 115 -153 77 -72 130 -108 238 -166 75 -41 78 -44 42 -38 -68 10 -217 61
-292 100 -99 51 -240 153 -329 236 -41 38 -74 66 -74 63 0 -13 73 -122 118
-176 25 -30 77 -88 116 -127 39 -40 67 -73 63 -73 -15 0 -93 43 -167 93 -81
54 -230 193 -288 269 -20 26 -37 46 -40 44 -2 -2 9 -28 24 -58 89 -176 211
-290 489 -456 89 -53 90 -54 45 -47 -133 21 -328 118 -475 236 -81 66 -244
233 -283 292 -13 20 -26 37 -28 37 -7 0 52 -119 84 -170 51 -80 116 -154 207
-233 152 -131 289 -190 458 -194 95 -2 99 -3 140 -37 23 -18 85 -60 137 -91
52 -31 97 -59 100 -62 10 -10 -108 9 -199 33 -95 24 -222 75 -356 140 l-70 35
75 -73 c145 -142 295 -213 517 -244 l122 -17 25 -74 c14 -40 22 -73 19 -73 -4
0 -29 17 -57 38 -58 43 -103 72 -111 72 -2 0 11 -21 30 -46 69 -90 80 -134 34
-134 -27 0 -272 107 -474 207 -138 68 -147 71 -110 38 22 -20 52 -43 68 -52
15 -10 27 -21 27 -26 0 -42 -310 158 -487 315 -78 69 -339 348 -325 348 4 0
12 -4 17 -9 6 -4 30 -15 55 -23 27 -9 121 -73 231 -155 102 -77 208 -152 235
-167 44 -25 157 -74 144 -63 -3 2 -68 58 -145 124 -177 151 -226 204 -372 405
-65 90 -130 177 -145 193 l-28 30 9 -26 c18 -49 99 -204 135 -258 20 -30 35
-55 34 -56 -8 -8 -123 80 -195 149 -90 86 -175 190 -223 276 -33 58 -33 55 0
-52 19 -63 47 -112 116 -204 l29 -39 -40 29 c-84 61 -187 161 -229 220 -38 54
-122 206 -113 206 2 0 23 -10 48 -22 37 -19 64 -23 164 -26 65 -2 144 -1 175
3 l55 7 -95 24 c-130 32 -242 78 -320 130 -132 87 -269 242 -371 417 -24 42
-47 77 -51 77 -12 0 23 -113 54 -174 17 -34 50 -91 73 -127 24 -37 48 -76 55
-89 l12 -22 -33 18 c-42 25 -120 102 -159 160 -72 104 -149 284 -175 409 -16
81 -20 205 -6 205 11 0 35 -36 73 -109 70 -134 162 -233 262 -283 l41 -20 -31
33 c-160 174 -251 422 -242 663 l3 89 48 -58 c64 -78 109 -111 186 -135 86
-27 95 -25 35 10 -67 38 -158 139 -194 215 -46 98 -71 215 -78 370 -4 81 -9
125 -12 105 l-6 -35 -38 75 c-81 156 -114 315 -100 475 6 70 11 83 36 108 23
24 35 28 61 24 88 -14 117 -20 117 -22 0 -2 -16 -26 -35 -55 -43 -64 -55 -106
-55 -197 0 -90 28 -173 106 -309 31 -55 83 -154 115 -221 32 -68 72 -143 89
-169 18 -25 30 -48 27 -51 -3 -3 -40 29 -82 71 -42 42 -78 76 -80 76 -24 0 84
-198 158 -292 28 -35 94 -88 110 -88 4 0 7 15 7 34 0 29 5 35 33 46 151 57
172 70 385 245 85 69 171 135 191 147 l38 22 -80 48 c-158 94 -246 179 -355
336 -87 127 -103 234 -50 340 29 59 60 74 163 80 l80 4 -27 -28 c-38 -41 -48
-75 -48 -157 0 -112 54 -213 200 -377 104 -116 140 -168 140 -201 l0 -28 70
35 c114 57 207 76 358 72 l129 -3 -71 76 c-77 81 -135 181 -155 262 -7 30 -9
77 -5 123 6 66 5 74 -9 68 -9 -3 -24 -26 -33 -50 -32 -84 -6 -231 66 -377 36
-73 32 -87 -28 -87 -40 0 -55 7 -119 56 -98 76 -165 151 -205 232 -29 59 -33
76 -33 149 l0 82 -22 -21 c-56 -52 -58 -196 -5 -299 17 -33 28 -59 23 -57 -13
5 -141 149 -186 210 -68 91 -77 176 -28 260 27 48 73 66 193 76 146 13 144 13
177 6z m-672 -91 c-73 -111 -40 -332 73 -482 39 -52 11 -34 -92 62 -105 96
-150 169 -165 265 -11 73 5 161 33 173 19 9 166 28 174 23 2 -1 -8 -20 -23
-41z m-205 -2 c0 -10 -7 -35 -15 -54 -21 -50 -19 -146 3 -205 30 -79 77 -138
232 -292 188 -186 224 -252 185 -333 -50 -103 -175 -92 -279 25 -86 95 -121
183 -137 345 -11 101 -14 112 -24 92 -22 -43 -37 -129 -31 -172 6 -40 5 -41
-10 -22 -26 33 -61 106 -78 164 -18 61 -22 235 -7 289 13 42 -5 39 -36 -7 -29
-43 -46 -131 -39 -200 l7 -56 -26 40 c-39 61 -58 138 -50 200 8 64 41 132 77
158 35 26 110 45 176 46 44 1 52 -2 52 -18z m-547 -86 c8 -4 12 -39 12 -123 1
-185 47 -352 127 -465 21 -29 23 -43 23 -162 1 -104 5 -141 21 -186 l20 -56
-26 -38 c-23 -36 -25 -47 -25 -161 0 -121 0 -122 -18 -95 -81 119 -97 196
-106 531 -7 251 -9 269 -34 343 -15 43 -39 101 -53 130 -40 78 -71 166 -79
224 -6 43 -4 53 12 62 16 11 94 8 126 -4z m-206 -167 c4 -13 44 -96 90 -186
l84 -162 -7 -182 -7 -182 -26 32 c-36 43 -118 190 -148 262 -26 66 -59 196
-70 275 l-6 50 -13 -40 c-7 -22 -13 -62 -13 -90 l-1 -50 -21 25 c-130 161 -97
266 84 269 43 1 50 -2 54 -21z m-217 -208 c0 -41 20 -86 70 -161 31 -44 58
-108 100 -235 60 -178 69 -228 90 -473 6 -68 17 -155 26 -193 9 -38 13 -72 11
-75 -8 -7 -74 99 -104 166 -14 31 -47 119 -73 197 -60 177 -68 193 -177 340
-85 115 -109 160 -132 249 -26 99 -9 132 92 181 88 42 97 42 97 4z m-228 -215
c-5 -62 29 -159 88 -250 84 -128 117 -199 78 -168 -7 6 -40 20 -73 32 -109 41
-218 104 -277 161 -52 50 -58 60 -58 96 0 49 19 76 75 109 41 25 139 64 160
65 6 0 9 -19 7 -45z m-238 -246 c18 -54 69 -110 194 -217 70 -60 87 -87 103
-164 16 -73 62 -172 105 -225 31 -37 112 -103 128 -103 3 0 -16 27 -43 61 -59
72 -104 161 -126 247 -19 75 -31 192 -20 192 5 0 32 -18 60 -39 47 -36 61 -56
139 -208 47 -92 109 -197 136 -233 28 -36 75 -96 104 -134 30 -37 125 -188
212 -334 88 -146 192 -310 232 -364 41 -55 71 -103 67 -106 -12 -12 -93 40
-148 94 -79 78 -140 176 -222 353 -40 86 -104 215 -141 286 -63 120 -78 140
-188 252 -66 68 -122 121 -124 118 -3 -3 10 -28 28 -57 149 -235 157 -251 265
-546 21 -56 59 -140 85 -185 26 -45 46 -83 45 -85 -2 -2 -32 11 -66 28 l-64
31 151 -148 c97 -95 168 -174 199 -220 85 -132 272 -309 304 -289 15 9 248
-110 300 -153 24 -20 103 -83 175 -141 111 -90 144 -123 221 -225 50 -66 178
-221 284 -345 205 -237 281 -335 401 -515 40 -60 82 -120 93 -132 11 -13 18
-26 15 -29 -18 -17 -92 59 -223 231 -149 195 -247 308 -425 490 -142 145 -213
228 -303 352 -113 156 -170 218 -237 257 -32 18 -32 18 14 -40 25 -32 44 -59
42 -61 -1 -2 -36 19 -77 45 -41 27 -129 84 -196 126 -67 43 -164 113 -215 156
-88 73 -129 119 -260 295 -88 119 -191 236 -368 419 -157 163 -173 183 -214
269 -45 94 -113 296 -141 422 -18 80 -64 215 -78 230 -6 6 -7 3 -3 -10 5 -19
26 -186 26 -214 0 -7 -28 13 -63 45 -34 33 -123 99 -197 148 -203 134 -260
187 -260 242 0 28 80 96 165 141 44 23 82 43 85 43 3 0 13 -23 24 -51z m849
-217 c7 -94 36 -176 88 -255 l38 -58 -16 -72 c-17 -81 -14 -238 6 -275 6 -12
8 -22 3 -22 -17 0 -94 145 -122 229 -34 102 -46 169 -60 356 -6 77 -15 160
-20 185 -16 77 -13 80 34 34 42 -42 43 -46 49 -122z m-1046 -69 c7 -10 26 -43
42 -73 68 -129 159 -215 314 -295 l93 -49 17 -55 c10 -31 21 -62 24 -69 3 -8
-21 0 -55 17 -34 17 -105 48 -159 70 -213 85 -454 211 -534 279 -48 41 -75 87
-57 98 17 10 269 92 287 93 8 1 20 -7 28 -16z m-167 -312 c27 -20 29 -23 93
-161 51 -110 95 -173 138 -199 29 -18 30 -19 7 -23 -44 -8 -193 10 -296 36
-147 36 -294 83 -317 100 -25 18 -16 30 84 100 43 30 97 77 120 105 60 71 111
84 171 42z m302 -149 c54 -31 125 -73 159 -92 77 -44 175 -147 266 -281 39
-58 89 -119 110 -135 21 -15 82 -71 136 -123 78 -75 108 -113 144 -181 26 -47
68 -118 95 -157 27 -40 44 -73 38 -73 -29 0 -111 54 -157 103 -29 30 -86 106
-126 169 -94 144 -149 193 -297 266 -166 80 -249 134 -313 199 -98 101 -107
118 -142 238 -26 87 -31 125 -17 125 4 0 51 -26 104 -58z m5138 -82 c24 -13
118 -136 193 -250 105 -163 200 -377 252 -571 21 -79 31 -139 61 -354 9 -67
-12 -26 -25 50 -46 262 -234 627 -424 823 -55 57 -190 166 -244 197 -31 18
-32 20 -15 38 42 48 95 77 139 77 24 0 53 -5 63 -10z m-5683 -175 c-6 -13 57
-104 83 -120 27 -17 3 -24 -67 -20 -166 10 -309 43 -300 69 7 23 191 82 266
85 16 1 22 -3 18 -14z m272 -14 l84 -17 23 -86 c45 -171 94 -263 198 -375 31
-33 56 -63 56 -66 0 -8 -98 26 -150 53 -68 34 -199 172 -242 255 -35 67 -88
212 -88 241 0 17 14 17 119 -5z m240 -114 c56 -54 176 -149 283 -226 160 -113
194 -142 238 -201 28 -38 65 -81 82 -95 67 -56 8 -40 -189 51 -175 81 -326
194 -419 315 -46 61 -134 214 -134 237 0 34 48 5 139 -81z m-524 -93 c33 -19
99 -64 147 -98 l88 -64 -33 -5 c-89 -16 -151 -18 -245 -8 -203 21 -390 72
-380 103 5 15 286 107 328 108 23 0 56 -12 95 -36z m1868 -131 c56 -42 124
-92 150 -113 42 -31 270 -319 261 -328 -1 -2 -29 13 -61 35 -80 53 -272 240
-351 343 -36 47 -77 97 -91 113 -40 44 -17 32 92 -50z m-1592 -163 c47 -24
132 -117 225 -245 51 -71 104 -143 116 -159 21 -28 21 -29 3 -22 -11 4 -47 14
-80 21 -209 49 -340 122 -485 269 -63 64 -120 138 -120 156 0 11 317 -8 341
-20z m-402 -157 c38 -54 95 -126 126 -160 l57 -63 -39 0 c-89 0 -206 46 -359
140 -149 92 -151 94 -134 116 27 31 134 62 222 63 l57 1 70 -97z m841 54 c22
-12 191 -141 303 -231 21 -17 54 -58 74 -91 21 -33 52 -81 71 -107 19 -27 30
-48 25 -48 -4 0 -48 20 -96 45 -98 49 -185 109 -265 180 -54 48 -212 232 -212
246 0 19 67 23 100 6z m1208 -101 c85 -43 242 -180 242 -210 0 -6 -151 98
-230 159 -98 75 -102 97 -12 51z m390 -174 c97 -97 194 -176 305 -244 49 -31
66 -49 102 -113 25 -43 61 -93 82 -112 l38 -35 -35 20 c-19 11 -59 29 -88 40
-131 50 -377 270 -451 404 -40 74 -66 138 -54 138 2 0 48 -44 101 -98z m-1124
68 c26 -10 145 -113 309 -267 48 -46 131 -111 184 -146 81 -53 92 -62 70 -65
-87 -11 -403 207 -576 396 l-83 92 35 0 c20 0 47 -4 61 -10z m-1678 -19 c-4
-7 27 -114 40 -139 1 -1 32 9 70 22 38 14 72 22 75 18 4 -4 34 -48 68 -99 33
-51 85 -119 114 -151 28 -33 72 -88 96 -122 49 -71 51 -70 -74 -19 -121 50
-214 117 -294 213 -40 47 -77 86 -82 86 -16 0 21 -74 49 -97 36 -30 11 -29
-53 1 -66 31 -124 92 -132 139 -5 33 -1 40 52 96 32 34 62 61 67 61 5 0 7 -4
4 -9z m2180 -139 c284 -168 307 -186 524 -399 113 -111 202 -204 199 -208 -9
-9 -112 64 -213 150 -47 41 -157 122 -243 181 -216 146 -463 333 -463 349 0
23 90 -11 196 -73z m3178 -90 c203 -130 355 -267 439 -395 62 -92 124 -216
153 -302 25 -77 26 -86 21 -240 -3 -95 -13 -207 -26 -277 -20 -113 -80 -318
-102 -348 -12 -17 -14 -24 29 125 24 84 26 105 26 300 1 279 -19 385 -105 556
-110 220 -352 506 -531 628 -50 33 -64 51 -26 30 12 -6 67 -41 122 -77z
m-4187 55 c11 -7 74 -59 138 -116 91 -81 129 -123 172 -190 30 -47 76 -107
101 -133 57 -59 47 -61 -93 -14 -255 85 -375 169 -519 361 l-37 50 28 11 c15
7 62 19 103 27 41 8 77 15 80 15 3 1 15 -4 27 -11z m-450 -79 c36 -35 108
-113 160 -175 84 -100 229 -233 254 -233 5 0 9 -4 9 -8 0 -14 -100 4 -159 28
-69 27 -200 112 -270 175 -29 27 -75 80 -102 118 -65 93 -65 131 2 147 19 4
36 8 37 9 2 1 33 -27 69 -61z m905 -92 c43 -18 123 -62 180 -97 164 -101 325
-159 439 -159 21 0 39 -4 39 -10 0 -5 -3 -10 -7 -10 -5 -1 -26 -17 -48 -37
-36 -32 -37 -34 -10 -20 17 8 47 18 68 22 34 7 56 -3 284 -125 351 -188 373
-204 445 -314 32 -50 58 -94 58 -98 0 -5 -23 3 -52 18 -28 14 -103 46 -166 70
-63 25 -171 71 -241 103 -69 32 -236 102 -371 156 -255 101 -418 183 -532 266
-73 55 -238 222 -238 243 0 37 55 34 152 -8z m3741 -88 c8 -13 29 -50 47 -83
l32 -59 -52 47 c-29 26 -56 47 -61 47 -17 0 -31 41 -18 56 17 20 37 17 52 -8z
m-605 -49 c7 -27 27 -84 46 -125 l35 -74 -24 -6 c-23 -6 -208 21 -227 32 -20
13 -5 -21 22 -48 29 -28 29 -30 8 -25 -13 3 -68 16 -123 27 -105 23 -199 62
-300 124 l-60 37 45 -8 c25 -5 97 -8 160 -7 130 1 224 26 335 88 33 18 63 34
66 35 3 0 11 -22 17 -50z m-4816 -13 c-97 -106 -118 -201 -64 -300 16 -31 26
-56 20 -56 -21 0 -72 45 -99 88 -44 69 -38 118 23 188 28 32 144 124 156 124
3 0 -14 -20 -36 -44z m5619 -256 c90 -61 113 -93 113 -154 0 -36 -24 -126 -33
-126 -3 0 -4 25 -3 56 6 86 -16 124 -107 188 -104 73 -218 172 -274 238 -26
30 -47 58 -47 61 0 4 60 -41 133 -99 72 -59 171 -133 218 -164z m-2245 134
c32 -19 91 -59 129 -87 39 -29 83 -61 98 -70 15 -10 74 -80 129 -155 56 -75
116 -154 134 -174 47 -53 126 -218 105 -218 -4 0 -46 53 -91 118 -46 64 -105
147 -132 183 -42 58 -155 170 -386 382 -35 31 -59 57 -54 57 4 0 35 -16 68
-36z m-2784 -75 c121 -73 211 -119 296 -149 58 -21 66 -27 90 -74 15 -28 29
-55 31 -60 7 -17 -212 2 -311 28 -152 39 -343 138 -411 213 -17 20 -16 21 45
48 76 35 128 54 147 55 7 0 58 -27 113 -61z m-533 -17 c25 -70 85 -165 143
-228 l42 -46 -38 23 c-58 34 -145 118 -167 160 -19 37 -25 102 -13 133 3 9 7
16 9 16 1 0 12 -26 24 -58z m1709 -67 c87 -56 159 -88 228 -99 27 -5 59 -22
95 -52 30 -25 96 -70 147 -101 51 -31 91 -57 90 -58 -11 -8 -175 18 -232 36
-175 56 -476 243 -476 295 0 13 31 32 55 33 6 0 47 -24 93 -54z m-387 -21 c29
-19 87 -53 128 -76 42 -22 103 -66 136 -97 59 -55 163 -117 237 -140 36 -12
66 -37 55 -47 -2 -3 -29 -8 -59 -11 -53 -5 -102 2 -338 48 -108 21 -241 81
-335 151 -72 54 -175 147 -175 158 0 12 29 20 119 35 136 23 172 20 232 -21z
m1764 -51 c184 -160 288 -313 419 -618 59 -135 128 -237 223 -326 70 -67 134
-109 263 -174 52 -26 119 -63 148 -81 28 -19 52 -32 52 -30 0 2 -18 34 -41 71
-42 70 -82 155 -76 161 2 2 31 -24 64 -58 49 -51 64 -76 83 -133 27 -84 43
-116 115 -236 30 -51 54 -93 53 -95 -2 -1 -41 30 -88 70 -102 87 -167 131
-325 220 -159 91 -227 140 -306 222 -71 75 -97 116 -214 333 -112 209 -217
374 -475 743 -14 20 -13 20 5 11 11 -6 56 -42 100 -80z m1956 10 c11 -27 52
-129 90 -228 105 -272 179 -396 306 -516 74 -70 160 -125 212 -135 17 -4 29
-10 26 -14 -9 -14 -189 30 -254 61 -77 38 -162 121 -214 209 -45 78 -72 163
-137 425 -27 110 -52 210 -56 223 -11 39 4 24 27 -25z m-1146 -202 c39 -22
129 -73 200 -112 72 -40 159 -90 195 -111 l65 -39 -45 6 c-191 28 -359 123
-510 289 l-45 50 35 -21 c19 -12 67 -40 105 -62z m-2619 -181 c161 -39 325
-48 503 -30 149 15 136 18 420 -87 424 -156 820 -341 1134 -532 62 -38 132
-78 157 -91 83 -41 164 -94 152 -98 -7 -2 -52 1 -99 8 -126 16 -344 100 -523
200 -190 107 -557 287 -795 392 l-190 83 -515 0 c-336 0 -584 -5 -713 -14
-134 -9 -202 -10 -208 -4 -11 11 19 81 43 100 21 17 403 97 489 102 8 1 73
-13 145 -29z m1134 10 c36 -10 117 -36 180 -58 63 -23 157 -52 208 -66 189
-53 432 -182 554 -296 l53 -49 -110 40 c-60 22 -164 62 -230 89 -189 76 -555
213 -725 270 -85 29 -163 58 -173 65 -18 13 -18 13 0 18 46 12 182 5 243 -13z
m-531 -335 c125 -24 235 -58 465 -146 340 -129 365 -140 460 -202 114 -75 246
-175 246 -187 0 -5 -14 -5 -32 1 -18 5 -147 32 -288 60 -528 105 -762 178
-929 291 -62 43 -201 178 -201 196 0 13 15 14 99 9 54 -4 135 -14 180 -22z
m-442 -117 c73 -35 132 -67 133 -71 0 -5 -3 -6 -7 -4 -5 3 -91 -1 -193 -9
-371 -26 -525 -15 -621 47 -45 29 -79 63 -79 80 0 4 37 5 83 3 45 -3 168 -1
272 4 105 5 210 10 235 11 37 1 70 -10 177 -61z m135 -217 c41 -11 142 -49
224 -86 385 -172 635 -265 794 -295 36 -7 68 -16 73 -20 13 -11 -85 -58 -159
-76 -99 -24 -276 -22 -376 5 -71 18 -386 143 -534 211 -121 55 -264 166 -326
253 l-19 27 124 0 c89 0 145 -5 199 -19z m3243 -203 c44 -22 100 -52 125 -66
l45 -26 -48 43 c-26 24 -46 45 -44 47 2 3 21 -3 42 -12 22 -9 71 -24 109 -34
l71 -18 12 -68 c17 -100 19 -95 -34 -77 -54 18 -133 26 -133 14 0 -5 10 -12
23 -17 15 -5 -6 -9 -67 -11 -149 -6 -302 44 -435 142 -73 54 -81 77 -12 34
109 -66 273 -114 426 -124 l90 -6 -52 25 c-108 51 -236 156 -273 225 -12 23
-11 23 32 -3 23 -15 79 -45 123 -68z m-1310 -90 c94 -32 276 -95 405 -138 130
-43 266 -93 303 -109 37 -17 113 -44 170 -60 162 -47 158 -44 107 -65 -100
-40 -235 -30 -409 29 -129 43 -378 154 -487 217 -161 91 -352 224 -278 193 10
-4 96 -34 189 -67z m1169 -198 c44 -22 110 -46 146 -53 73 -14 75 -17 108
-127 45 -149 57 -230 56 -400 0 -117 -4 -174 -13 -195 l-14 -30 -7 31 c-20 89
-152 194 -295 235 -138 39 -276 98 -372 158 -24 14 -43 30 -43 34 0 5 4 5 10
2 5 -3 32 -6 59 -7 56 0 129 31 198 83 l41 31 89 -22 c112 -28 153 -19 224 47
27 25 49 50 49 55 0 5 -7 2 -16 -6 -39 -39 -231 62 -315 166 -40 48 -89 120
-89 128 0 3 23 -16 51 -42 29 -27 88 -66 133 -88z m-1814 51 c112 -23 327 -57
424 -67 59 -6 77 -13 140 -55 39 -26 129 -96 200 -154 259 -214 402 -294 716
-400 69 -24 133 -46 143 -50 9 -4 33 -35 53 -69 20 -33 33 -53 30 -43 -15 47
-37 227 -28 227 14 -1 179 -214 253 -325 72 -109 77 -113 87 -90 6 13 20 29
32 35 17 9 22 7 30 -14 5 -14 14 -80 20 -148 10 -123 4 -208 -18 -230 -7 -7
-52 28 -143 113 -167 157 -244 222 -316 265 -87 52 -120 58 -211 38 -98 -23
-254 -23 -345 -1 -112 28 -269 94 -364 153 -48 31 -91 58 -95 60 -20 12 10
-42 44 -81 69 -79 76 -81 -307 112 -163 83 -256 145 -334 226 l-44 46 -38 -20
c-223 -113 -613 -24 -858 197 -44 40 -89 109 -78 120 2 3 46 -10 98 -28 87
-30 104 -33 219 -33 99 0 144 5 215 24 165 43 291 116 331 193 10 20 21 27 32
24 9 -3 60 -14 112 -25z m24 -625 c69 -55 97 -71 466 -269 279 -149 340 -185
340 -201 0 -25 -40 -64 -77 -77 -142 -46 -656 115 -916 288 -85 56 -189 153
-236 218 l-34 47 56 -7 c67 -9 204 9 267 35 25 10 50 18 56 19 6 1 41 -23 78
-53z m1459 -611 c9 -13 42 -61 71 -105 l55 -81 14 27 15 28 28 -53 c84 -155
160 -207 156 -107 -1 19 4 38 10 42 7 5 9 -27 6 -112 -3 -91 -8 -128 -23 -159
-40 -81 -98 -52 -196 97 -73 112 -124 242 -163 421 -8 33 3 34 27 2z m-214
-378 c16 -50 31 -101 34 -112 5 -28 27 49 27 97 0 61 16 52 36 -20 29 -104 27
-393 -5 -519 -32 -131 -39 -138 -143 -138 -69 0 -93 5 -139 26 -119 56 -191
150 -255 334 -23 66 -45 128 -49 138 -6 15 0 17 51 17 119 0 230 40 306 108
41 36 88 120 88 155 0 38 19 4 49 -86z"/>
<path d="M5422 11310 c-88 -54 -93 -200 -11 -300 l20 -25 -12 25 c-8 15 -13
65 -14 125 0 92 2 104 28 148 15 26 27 47 25 47 -2 0 -18 -9 -36 -20z"/>
<path d="M5685 11256 c-13 -13 -27 -40 -31 -60 -11 -63 1 -207 22 -254 l19
-44 0 129 c0 108 4 135 21 173 12 25 29 53 38 63 17 16 16 17 -14 17 -19 0
-40 -9 -55 -24z"/>
<path d="M6024 11186 c-58 -26 -86 -91 -86 -208 -1 -75 20 -145 33 -112 4 10
8 37 8 59 1 45 22 128 41 165 7 14 31 44 53 68 l41 42 -29 0 c-17 -1 -44 -7
-61 -14z"/>
<path d="M5505 11026 c-26 -87 -17 -168 29 -259 47 -95 74 -126 116 -136 19
-4 45 -11 58 -15 19 -6 14 3 -25 56 -68 89 -120 208 -142 319 l-18 94 -18 -59z"/>
<path d="M5810 11038 c-43 -71 -36 -234 15 -345 50 -110 81 -148 145 -181 33
-16 60 -28 60 -26 0 2 -20 29 -45 59 -93 115 -143 260 -147 434 -2 50 -4 91
-6 91 -1 0 -11 -14 -22 -32z"/>
<path d="M6260 11052 c-93 -47 -113 -174 -53 -349 l18 -52 0 127 c0 113 3 132
24 175 14 30 38 58 63 74 28 19 35 29 26 34 -20 13 -40 11 -78 -9z"/>
<path d="M6474 10966 c-75 -33 -132 -159 -120 -266 5 -44 42 -180 49 -180 1 0
2 51 2 113 0 146 25 227 94 298 39 41 44 49 27 49 -12 -1 -35 -7 -52 -14z"/>
<path d="M6068 10883 c-32 -72 -35 -175 -10 -260 37 -119 91 -213 145 -251
l48 -34 -50 82 c-88 145 -119 265 -106 422 3 48 4 88 0 88 -3 0 -16 -21 -27
-47z"/>
<path d="M6692 10823 c-18 -8 -44 -29 -57 -45 -27 -32 -55 -115 -55 -162 0
-26 6 -19 39 49 22 44 60 101 85 128 47 49 44 58 -12 30z"/>
<path d="M6885 10701 c-52 -13 -72 -29 -95 -77 -15 -31 -24 -70 -26 -118 l-4
-71 19 50 c32 87 61 135 108 181 26 24 42 44 37 43 -5 -1 -22 -4 -39 -8z"/>
<path d="M7005 10570 c-31 -12 -64 -53 -75 -91 -17 -58 -11 -65 18 -18 16 24
47 61 70 82 41 36 36 48 -13 27z"/>
<path d="M5270 10246 c-168 -36 -292 -166 -319 -334 -32 -202 87 -390 288
-452 76 -24 137 -25 216 -5 239 62 365 313 275 548 -46 120 -179 225 -315 247
-71 12 -75 12 -145 -4z m205 -105 c199 -88 258 -351 115 -513 -25 -29 -61 -55
-101 -73 -56 -25 -70 -27 -148 -23 -71 3 -95 9 -139 33 -64 35 -107 81 -139
152 -86 187 17 396 222 447 38 9 146 -3 190 -23z"/>
<path d="M5262 9990 c-49 -30 -72 -75 -72 -141 0 -42 6 -65 23 -90 26 -39 97
-79 142 -79 50 0 117 40 142 85 32 57 31 90 -4 93 -62 5 -95 54 -75 111 13 36
3 41 -71 41 -34 0 -63 -7 -85 -20z"/>
<path d="M7074 9717 c-31 -28 -37 -42 -41 -83 -9 -92 45 -154 134 -154 66 0
106 26 128 84 23 60 10 111 -40 155 -31 27 -44 31 -90 31 -49 0 -60 -4 -91
-33z"/>
<path d="M2720 6083 c0 -3 20 -34 45 -68 51 -73 120 -136 200 -184 l56 -34 74
35 74 35 -54 12 c-71 16 -219 89 -317 156 -43 30 -78 51 -78 48z"/>
</g>
</svg>
